<mxfile host="app.diagrams.net" modified="2022-06-14T15:18:05.552Z" agent="5.0 (Windows NT 10.0; Win64; x64) AppleWebKit/537.36 (KHTML, like Gecko) Chrome/102.0.0.0 Safari/537.36" etag="ic7vpT9R4WE-Cq6hPNit" version="19.0.2" type="github">
  <diagram id="R2lEEEUBdFMjLlhIrx00" name="Page-1">
    <mxGraphModel dx="1669" dy="2269" grid="1" gridSize="10" guides="1" tooltips="1" connect="1" arrows="1" fold="1" page="1" pageScale="1" pageWidth="850" pageHeight="1100" math="0" shadow="0" extFonts="Permanent Marker^https://fonts.googleapis.com/css?family=Permanent+Marker">
      <root>
        <mxCell id="0" />
        <mxCell id="1" parent="0" />
        <mxCell id="FWhiAtJqF6bARORyfOb4-8" value="" style="edgeStyle=orthogonalEdgeStyle;rounded=0;orthogonalLoop=1;jettySize=auto;html=1;" parent="1" source="FWhiAtJqF6bARORyfOb4-1" target="FWhiAtJqF6bARORyfOb4-7" edge="1">
          <mxGeometry relative="1" as="geometry">
            <Array as="points">
              <mxPoint x="740" y="300" />
              <mxPoint x="740" y="300" />
            </Array>
          </mxGeometry>
        </mxCell>
        <mxCell id="FWhiAtJqF6bARORyfOb4-45" value="" style="edgeStyle=orthogonalEdgeStyle;rounded=0;orthogonalLoop=1;jettySize=auto;html=1;" parent="1" source="FWhiAtJqF6bARORyfOb4-1" target="FWhiAtJqF6bARORyfOb4-23" edge="1">
          <mxGeometry relative="1" as="geometry" />
        </mxCell>
        <mxCell id="FWhiAtJqF6bARORyfOb4-62" value="" style="edgeStyle=orthogonalEdgeStyle;rounded=0;orthogonalLoop=1;jettySize=auto;html=1;" parent="1" source="FWhiAtJqF6bARORyfOb4-1" target="FWhiAtJqF6bARORyfOb4-59" edge="1">
          <mxGeometry relative="1" as="geometry">
            <Array as="points">
              <mxPoint x="760" y="360" />
              <mxPoint x="760" y="360" />
            </Array>
          </mxGeometry>
        </mxCell>
        <mxCell id="FWhiAtJqF6bARORyfOb4-71" value="" style="edgeStyle=orthogonalEdgeStyle;rounded=0;orthogonalLoop=1;jettySize=auto;html=1;" parent="1" source="FWhiAtJqF6bARORyfOb4-1" target="FWhiAtJqF6bARORyfOb4-70" edge="1">
          <mxGeometry relative="1" as="geometry" />
        </mxCell>
        <mxCell id="FWhiAtJqF6bARORyfOb4-1" value="Customer" style="rounded=0;whiteSpace=wrap;html=1;" parent="1" vertex="1">
          <mxGeometry x="770" y="300" width="120" height="60" as="geometry" />
        </mxCell>
        <mxCell id="FWhiAtJqF6bARORyfOb4-12" value="" style="edgeStyle=orthogonalEdgeStyle;rounded=0;orthogonalLoop=1;jettySize=auto;html=1;" parent="1" source="FWhiAtJqF6bARORyfOb4-2" target="FWhiAtJqF6bARORyfOb4-11" edge="1">
          <mxGeometry relative="1" as="geometry" />
        </mxCell>
        <mxCell id="FWhiAtJqF6bARORyfOb4-79" value="" style="edgeStyle=orthogonalEdgeStyle;rounded=0;orthogonalLoop=1;jettySize=auto;html=1;" parent="1" source="FWhiAtJqF6bARORyfOb4-2" target="FWhiAtJqF6bARORyfOb4-55" edge="1">
          <mxGeometry relative="1" as="geometry">
            <Array as="points">
              <mxPoint x="450" y="370" />
              <mxPoint x="450" y="370" />
            </Array>
          </mxGeometry>
        </mxCell>
        <mxCell id="FWhiAtJqF6bARORyfOb4-80" value="" style="edgeStyle=orthogonalEdgeStyle;rounded=0;orthogonalLoop=1;jettySize=auto;html=1;entryX=0;entryY=0.5;entryDx=0;entryDy=0;" parent="1" source="FWhiAtJqF6bARORyfOb4-2" target="FWhiAtJqF6bARORyfOb4-75" edge="1">
          <mxGeometry relative="1" as="geometry">
            <Array as="points">
              <mxPoint x="390" y="540" />
            </Array>
          </mxGeometry>
        </mxCell>
        <mxCell id="FWhiAtJqF6bARORyfOb4-2" value="Waiter" style="rounded=0;whiteSpace=wrap;html=1;" parent="1" vertex="1">
          <mxGeometry x="365" y="300" width="120" height="60" as="geometry" />
        </mxCell>
        <mxCell id="FWhiAtJqF6bARORyfOb4-46" value="" style="edgeStyle=orthogonalEdgeStyle;rounded=0;orthogonalLoop=1;jettySize=auto;html=1;" parent="1" source="FWhiAtJqF6bARORyfOb4-3" target="FWhiAtJqF6bARORyfOb4-17" edge="1">
          <mxGeometry relative="1" as="geometry" />
        </mxCell>
        <mxCell id="FWhiAtJqF6bARORyfOb4-3" value="Chef" style="rounded=0;whiteSpace=wrap;html=1;" parent="1" vertex="1">
          <mxGeometry x="-50" y="40" width="120" height="60" as="geometry" />
        </mxCell>
        <mxCell id="FWhiAtJqF6bARORyfOb4-43" value="" style="edgeStyle=orthogonalEdgeStyle;rounded=0;orthogonalLoop=1;jettySize=auto;html=1;" parent="1" source="FWhiAtJqF6bARORyfOb4-5" target="FWhiAtJqF6bARORyfOb4-36" edge="1">
          <mxGeometry relative="1" as="geometry" />
        </mxCell>
        <mxCell id="FWhiAtJqF6bARORyfOb4-5" value="Meals" style="rounded=0;whiteSpace=wrap;html=1;" parent="1" vertex="1">
          <mxGeometry x="770" y="-110" width="120" height="60" as="geometry" />
        </mxCell>
        <mxCell id="FWhiAtJqF6bARORyfOb4-9" value="" style="edgeStyle=orthogonalEdgeStyle;rounded=0;orthogonalLoop=1;jettySize=auto;html=1;" parent="1" source="FWhiAtJqF6bARORyfOb4-7" target="FWhiAtJqF6bARORyfOb4-2" edge="1">
          <mxGeometry relative="1" as="geometry">
            <Array as="points">
              <mxPoint x="550" y="300" />
              <mxPoint x="550" y="300" />
            </Array>
          </mxGeometry>
        </mxCell>
        <mxCell id="FWhiAtJqF6bARORyfOb4-7" value="orders meals trough" style="rhombus;whiteSpace=wrap;html=1;rounded=0;" parent="1" vertex="1">
          <mxGeometry x="565" y="270" width="135" height="60" as="geometry" />
        </mxCell>
        <mxCell id="FWhiAtJqF6bARORyfOb4-21" value="" style="edgeStyle=orthogonalEdgeStyle;rounded=0;orthogonalLoop=1;jettySize=auto;html=1;" parent="1" source="FWhiAtJqF6bARORyfOb4-10" target="FWhiAtJqF6bARORyfOb4-20" edge="1">
          <mxGeometry relative="1" as="geometry" />
        </mxCell>
        <mxCell id="FWhiAtJqF6bARORyfOb4-10" value="Orders" style="rounded=0;whiteSpace=wrap;html=1;" parent="1" vertex="1">
          <mxGeometry x="365" y="40" width="120" height="60" as="geometry" />
        </mxCell>
        <mxCell id="FWhiAtJqF6bARORyfOb4-13" value="" style="edgeStyle=orthogonalEdgeStyle;rounded=0;orthogonalLoop=1;jettySize=auto;html=1;" parent="1" source="FWhiAtJqF6bARORyfOb4-11" target="FWhiAtJqF6bARORyfOb4-10" edge="1">
          <mxGeometry relative="1" as="geometry" />
        </mxCell>
        <mxCell id="FWhiAtJqF6bARORyfOb4-11" value="creates" style="rhombus;whiteSpace=wrap;html=1;rounded=0;" parent="1" vertex="1">
          <mxGeometry x="385" y="160" width="80" height="80" as="geometry" />
        </mxCell>
        <mxCell id="FWhiAtJqF6bARORyfOb4-47" value="" style="edgeStyle=orthogonalEdgeStyle;rounded=0;orthogonalLoop=1;jettySize=auto;html=1;" parent="1" source="FWhiAtJqF6bARORyfOb4-17" target="FWhiAtJqF6bARORyfOb4-10" edge="1">
          <mxGeometry relative="1" as="geometry" />
        </mxCell>
        <mxCell id="FWhiAtJqF6bARORyfOb4-17" value="reads" style="rhombus;whiteSpace=wrap;html=1;rounded=0;" parent="1" vertex="1">
          <mxGeometry x="170" y="30" width="80" height="80" as="geometry" />
        </mxCell>
        <mxCell id="FWhiAtJqF6bARORyfOb4-22" value="" style="edgeStyle=orthogonalEdgeStyle;rounded=0;orthogonalLoop=1;jettySize=auto;html=1;" parent="1" source="FWhiAtJqF6bARORyfOb4-20" target="FWhiAtJqF6bARORyfOb4-5" edge="1">
          <mxGeometry relative="1" as="geometry" />
        </mxCell>
        <mxCell id="FWhiAtJqF6bARORyfOb4-20" value="contains" style="rhombus;whiteSpace=wrap;html=1;rounded=0;" parent="1" vertex="1">
          <mxGeometry x="385" y="-120" width="80" height="80" as="geometry" />
        </mxCell>
        <mxCell id="FWhiAtJqF6bARORyfOb4-27" value="0..N" style="text;html=1;align=center;verticalAlign=middle;resizable=0;points=[];autosize=1;strokeColor=none;fillColor=none;" parent="1" vertex="1">
          <mxGeometry x="420" y="20" width="40" height="20" as="geometry" />
        </mxCell>
        <mxCell id="FWhiAtJqF6bARORyfOb4-28" value="1...N" style="text;html=1;align=center;verticalAlign=middle;resizable=0;points=[];autosize=1;strokeColor=none;fillColor=none;" parent="1" vertex="1">
          <mxGeometry x="730" y="-100" width="40" height="20" as="geometry" />
        </mxCell>
        <mxCell id="FWhiAtJqF6bARORyfOb4-29" value="1..N" style="text;html=1;align=center;verticalAlign=middle;resizable=0;points=[];autosize=1;strokeColor=none;fillColor=none;" parent="1" vertex="1">
          <mxGeometry x="830" y="280" width="40" height="20" as="geometry" />
        </mxCell>
        <mxCell id="FWhiAtJqF6bARORyfOb4-30" value="1" style="text;html=1;align=center;verticalAlign=middle;resizable=0;points=[];autosize=1;strokeColor=none;fillColor=none;" parent="1" vertex="1">
          <mxGeometry x="840" y="160" width="20" height="20" as="geometry" />
        </mxCell>
        <mxCell id="FWhiAtJqF6bARORyfOb4-31" value="1" style="text;html=1;align=center;verticalAlign=middle;resizable=0;points=[];autosize=1;strokeColor=none;fillColor=none;" parent="1" vertex="1">
          <mxGeometry x="490" y="300" width="20" height="20" as="geometry" />
        </mxCell>
        <mxCell id="FWhiAtJqF6bARORyfOb4-32" value="1..N" style="text;html=1;align=center;verticalAlign=middle;resizable=0;points=[];autosize=1;strokeColor=none;fillColor=none;" parent="1" vertex="1">
          <mxGeometry x="730" y="300" width="40" height="20" as="geometry" />
        </mxCell>
        <mxCell id="FWhiAtJqF6bARORyfOb4-33" value="0..N" style="text;html=1;align=center;verticalAlign=middle;resizable=0;points=[];autosize=1;strokeColor=none;fillColor=none;" parent="1" vertex="1">
          <mxGeometry x="425" y="100" width="40" height="20" as="geometry" />
        </mxCell>
        <mxCell id="FWhiAtJqF6bARORyfOb4-34" value="1" style="text;html=1;align=center;verticalAlign=middle;resizable=0;points=[];autosize=1;strokeColor=none;fillColor=none;" parent="1" vertex="1">
          <mxGeometry x="430" y="280" width="20" height="20" as="geometry" />
        </mxCell>
        <mxCell id="FWhiAtJqF6bARORyfOb4-41" value="" style="edgeStyle=orthogonalEdgeStyle;rounded=0;orthogonalLoop=1;jettySize=auto;html=1;" parent="1" source="FWhiAtJqF6bARORyfOb4-23" target="FWhiAtJqF6bARORyfOb4-40" edge="1">
          <mxGeometry relative="1" as="geometry" />
        </mxCell>
        <mxCell id="FWhiAtJqF6bARORyfOb4-23" value="reads" style="rhombus;whiteSpace=wrap;html=1;rounded=0;" parent="1" vertex="1">
          <mxGeometry x="790" y="190" width="80" height="80" as="geometry" />
        </mxCell>
        <mxCell id="FWhiAtJqF6bARORyfOb4-44" value="" style="edgeStyle=orthogonalEdgeStyle;rounded=0;orthogonalLoop=1;jettySize=auto;html=1;" parent="1" source="FWhiAtJqF6bARORyfOb4-36" target="FWhiAtJqF6bARORyfOb4-40" edge="1">
          <mxGeometry relative="1" as="geometry" />
        </mxCell>
        <mxCell id="FWhiAtJqF6bARORyfOb4-36" value="contains" style="rhombus;whiteSpace=wrap;html=1;rounded=0;" parent="1" vertex="1">
          <mxGeometry x="790" y="-10" width="80" height="80" as="geometry" />
        </mxCell>
        <mxCell id="FWhiAtJqF6bARORyfOb4-40" value="Menu" style="rounded=0;whiteSpace=wrap;html=1;" parent="1" vertex="1">
          <mxGeometry x="770" y="100" width="120" height="60" as="geometry" />
        </mxCell>
        <mxCell id="FWhiAtJqF6bARORyfOb4-50" value="1..N" style="text;html=1;align=center;verticalAlign=middle;resizable=0;points=[];autosize=1;strokeColor=none;fillColor=none;" parent="1" vertex="1">
          <mxGeometry x="820" y="-50" width="40" height="20" as="geometry" />
        </mxCell>
        <mxCell id="FWhiAtJqF6bARORyfOb4-51" value="0..1" style="text;html=1;align=center;verticalAlign=middle;resizable=0;points=[];autosize=1;strokeColor=none;fillColor=none;" parent="1" vertex="1">
          <mxGeometry x="830" y="80" width="40" height="20" as="geometry" />
        </mxCell>
        <mxCell id="FWhiAtJqF6bARORyfOb4-52" value="0..N" style="text;html=1;align=center;verticalAlign=middle;resizable=0;points=[];autosize=1;strokeColor=none;fillColor=none;" parent="1" vertex="1">
          <mxGeometry x="325" y="50" width="40" height="20" as="geometry" />
        </mxCell>
        <mxCell id="FWhiAtJqF6bARORyfOb4-53" value="1" style="text;html=1;align=center;verticalAlign=middle;resizable=0;points=[];autosize=1;strokeColor=none;fillColor=none;" parent="1" vertex="1">
          <mxGeometry x="70" y="50" width="20" height="20" as="geometry" />
        </mxCell>
        <mxCell id="FWhiAtJqF6bARORyfOb4-58" value="" style="edgeStyle=orthogonalEdgeStyle;rounded=0;orthogonalLoop=1;jettySize=auto;html=1;" parent="1" source="FWhiAtJqF6bARORyfOb4-55" target="FWhiAtJqF6bARORyfOb4-57" edge="1">
          <mxGeometry relative="1" as="geometry" />
        </mxCell>
        <mxCell id="FWhiAtJqF6bARORyfOb4-55" value="creates" style="rhombus;whiteSpace=wrap;html=1;rounded=0;" parent="1" vertex="1">
          <mxGeometry x="410" y="400" width="80" height="80" as="geometry" />
        </mxCell>
        <mxCell id="FWhiAtJqF6bARORyfOb4-57" value="Reservation" style="whiteSpace=wrap;html=1;rounded=0;" parent="1" vertex="1">
          <mxGeometry x="565" y="440" width="120" height="60" as="geometry" />
        </mxCell>
        <mxCell id="FWhiAtJqF6bARORyfOb4-69" value="" style="edgeStyle=orthogonalEdgeStyle;rounded=0;orthogonalLoop=1;jettySize=auto;html=1;entryX=1;entryY=1;entryDx=0;entryDy=0;" parent="1" source="FWhiAtJqF6bARORyfOb4-59" target="FWhiAtJqF6bARORyfOb4-2" edge="1">
          <mxGeometry relative="1" as="geometry">
            <Array as="points">
              <mxPoint x="510" y="360" />
              <mxPoint x="510" y="360" />
            </Array>
          </mxGeometry>
        </mxCell>
        <mxCell id="FWhiAtJqF6bARORyfOb4-59" value="creates reservation request" style="rhombus;whiteSpace=wrap;html=1;rounded=0;" parent="1" vertex="1">
          <mxGeometry x="547.5" y="330" width="170" height="60" as="geometry" />
        </mxCell>
        <mxCell id="FWhiAtJqF6bARORyfOb4-64" value="1..N" style="text;html=1;align=center;verticalAlign=middle;resizable=0;points=[];autosize=1;strokeColor=none;fillColor=none;" parent="1" vertex="1">
          <mxGeometry x="730" y="340" width="40" height="20" as="geometry" />
        </mxCell>
        <mxCell id="FWhiAtJqF6bARORyfOb4-65" value="1" style="text;html=1;align=center;verticalAlign=middle;resizable=0;points=[];autosize=1;strokeColor=none;fillColor=none;" parent="1" vertex="1">
          <mxGeometry x="490" y="340" width="20" height="20" as="geometry" />
        </mxCell>
        <mxCell id="FWhiAtJqF6bARORyfOb4-66" value="0..N" style="text;html=1;align=center;verticalAlign=middle;resizable=0;points=[];autosize=1;strokeColor=none;fillColor=none;" parent="1" vertex="1">
          <mxGeometry x="530" y="450" width="40" height="20" as="geometry" />
        </mxCell>
        <mxCell id="FWhiAtJqF6bARORyfOb4-67" value="1" style="text;html=1;align=center;verticalAlign=middle;resizable=0;points=[];autosize=1;strokeColor=none;fillColor=none;" parent="1" vertex="1">
          <mxGeometry x="460" y="360" width="20" height="20" as="geometry" />
        </mxCell>
        <mxCell id="FWhiAtJqF6bARORyfOb4-72" value="" style="edgeStyle=orthogonalEdgeStyle;rounded=0;orthogonalLoop=1;jettySize=auto;html=1;" parent="1" source="FWhiAtJqF6bARORyfOb4-70" target="FWhiAtJqF6bARORyfOb4-57" edge="1">
          <mxGeometry relative="1" as="geometry" />
        </mxCell>
        <mxCell id="FWhiAtJqF6bARORyfOb4-70" value="has" style="rhombus;whiteSpace=wrap;html=1;rounded=0;" parent="1" vertex="1">
          <mxGeometry x="790" y="430" width="80" height="80" as="geometry" />
        </mxCell>
        <mxCell id="FWhiAtJqF6bARORyfOb4-73" value="1..N" style="text;html=1;align=center;verticalAlign=middle;resizable=0;points=[];autosize=1;strokeColor=none;fillColor=none;" parent="1" vertex="1">
          <mxGeometry x="677.5" y="450" width="40" height="20" as="geometry" />
        </mxCell>
        <mxCell id="FWhiAtJqF6bARORyfOb4-74" value="1" style="text;html=1;align=center;verticalAlign=middle;resizable=0;points=[];autosize=1;strokeColor=none;fillColor=none;" parent="1" vertex="1">
          <mxGeometry x="830" y="360" width="20" height="20" as="geometry" />
        </mxCell>
        <mxCell id="FWhiAtJqF6bARORyfOb4-77" value="" style="edgeStyle=orthogonalEdgeStyle;rounded=0;orthogonalLoop=1;jettySize=auto;html=1;" parent="1" source="FWhiAtJqF6bARORyfOb4-75" target="FWhiAtJqF6bARORyfOb4-57" edge="1">
          <mxGeometry relative="1" as="geometry" />
        </mxCell>
        <mxCell id="FWhiAtJqF6bARORyfOb4-75" value="delete" style="rhombus;whiteSpace=wrap;html=1;rounded=0;" parent="1" vertex="1">
          <mxGeometry x="410" y="500" width="80" height="80" as="geometry" />
        </mxCell>
        <mxCell id="FWhiAtJqF6bARORyfOb4-81" value="1" style="text;html=1;align=center;verticalAlign=middle;resizable=0;points=[];autosize=1;strokeColor=none;fillColor=none;" parent="1" vertex="1">
          <mxGeometry x="400" y="360" width="20" height="20" as="geometry" />
        </mxCell>
        <mxCell id="FWhiAtJqF6bARORyfOb4-82" value="0..N" style="text;html=1;align=center;verticalAlign=middle;resizable=0;points=[];autosize=1;strokeColor=none;fillColor=none;" parent="1" vertex="1">
          <mxGeometry x="485" y="520" width="40" height="20" as="geometry" />
        </mxCell>
        <mxCell id="dD-ff6LDMtreiRbt8ggY-2" value="" style="edgeStyle=orthogonalEdgeStyle;rounded=0;orthogonalLoop=1;jettySize=auto;html=1;" parent="1" source="dD-ff6LDMtreiRbt8ggY-5" edge="1" target="dD-ff6LDMtreiRbt8ggY-70">
          <mxGeometry relative="1" as="geometry">
            <mxPoint x="720" y="1160" as="targetPoint" />
          </mxGeometry>
        </mxCell>
        <mxCell id="dD-ff6LDMtreiRbt8ggY-99" value="" style="edgeStyle=orthogonalEdgeStyle;rounded=0;orthogonalLoop=1;jettySize=auto;html=1;" parent="1" source="dD-ff6LDMtreiRbt8ggY-5" target="dD-ff6LDMtreiRbt8ggY-51" edge="1">
          <mxGeometry relative="1" as="geometry" />
        </mxCell>
        <mxCell id="dD-ff6LDMtreiRbt8ggY-112" value="" style="edgeStyle=orthogonalEdgeStyle;rounded=0;orthogonalLoop=1;jettySize=auto;html=1;" parent="1" source="dD-ff6LDMtreiRbt8ggY-5" target="dD-ff6LDMtreiRbt8ggY-111" edge="1">
          <mxGeometry relative="1" as="geometry" />
        </mxCell>
        <mxCell id="dD-ff6LDMtreiRbt8ggY-5" value="Customer" style="rounded=0;whiteSpace=wrap;html=1;" parent="1" vertex="1">
          <mxGeometry x="660" y="1190" width="120" height="60" as="geometry" />
        </mxCell>
        <mxCell id="dD-ff6LDMtreiRbt8ggY-6" value="" style="edgeStyle=orthogonalEdgeStyle;rounded=0;orthogonalLoop=1;jettySize=auto;html=1;" parent="1" source="dD-ff6LDMtreiRbt8ggY-9" edge="1">
          <mxGeometry relative="1" as="geometry">
            <mxPoint x="355" y="1130" as="targetPoint" />
          </mxGeometry>
        </mxCell>
        <mxCell id="dD-ff6LDMtreiRbt8ggY-58" style="edgeStyle=orthogonalEdgeStyle;rounded=0;orthogonalLoop=1;jettySize=auto;html=1;entryX=0.5;entryY=0;entryDx=0;entryDy=0;exitX=0;exitY=1;exitDx=0;exitDy=0;" parent="1" source="dD-ff6LDMtreiRbt8ggY-9" target="dD-ff6LDMtreiRbt8ggY-55" edge="1">
          <mxGeometry relative="1" as="geometry">
            <mxPoint x="290" y="1250" as="sourcePoint" />
            <Array as="points">
              <mxPoint x="295" y="1300" />
              <mxPoint x="200" y="1300" />
            </Array>
          </mxGeometry>
        </mxCell>
        <mxCell id="dD-ff6LDMtreiRbt8ggY-60" style="edgeStyle=orthogonalEdgeStyle;rounded=0;orthogonalLoop=1;jettySize=auto;html=1;entryX=0.5;entryY=0;entryDx=0;entryDy=0;" parent="1" source="dD-ff6LDMtreiRbt8ggY-9" target="dD-ff6LDMtreiRbt8ggY-42" edge="1">
          <mxGeometry relative="1" as="geometry" />
        </mxCell>
        <mxCell id="dD-ff6LDMtreiRbt8ggY-63" style="edgeStyle=orthogonalEdgeStyle;rounded=0;orthogonalLoop=1;jettySize=auto;html=1;entryX=0.5;entryY=0;entryDx=0;entryDy=0;exitX=1;exitY=1;exitDx=0;exitDy=0;" parent="1" source="dD-ff6LDMtreiRbt8ggY-9" target="dD-ff6LDMtreiRbt8ggY-61" edge="1">
          <mxGeometry relative="1" as="geometry">
            <Array as="points">
              <mxPoint x="415" y="1300" />
              <mxPoint x="500" y="1300" />
            </Array>
          </mxGeometry>
        </mxCell>
        <mxCell id="dD-ff6LDMtreiRbt8ggY-77" style="edgeStyle=orthogonalEdgeStyle;rounded=0;orthogonalLoop=1;jettySize=auto;html=1;exitX=1;exitY=0;exitDx=0;exitDy=0;entryX=0.5;entryY=1;entryDx=0;entryDy=0;" parent="1" source="dD-ff6LDMtreiRbt8ggY-9" target="dD-ff6LDMtreiRbt8ggY-76" edge="1">
          <mxGeometry relative="1" as="geometry" />
        </mxCell>
        <mxCell id="dD-ff6LDMtreiRbt8ggY-78" style="edgeStyle=orthogonalEdgeStyle;rounded=0;orthogonalLoop=1;jettySize=auto;html=1;exitX=0;exitY=0;exitDx=0;exitDy=0;entryX=0.5;entryY=1;entryDx=0;entryDy=0;" parent="1" source="dD-ff6LDMtreiRbt8ggY-9" target="dD-ff6LDMtreiRbt8ggY-75" edge="1">
          <mxGeometry relative="1" as="geometry" />
        </mxCell>
        <mxCell id="dD-ff6LDMtreiRbt8ggY-9" value="Waiter" style="rounded=0;whiteSpace=wrap;html=1;" parent="1" vertex="1">
          <mxGeometry x="295" y="1190" width="120" height="60" as="geometry" />
        </mxCell>
        <mxCell id="dD-ff6LDMtreiRbt8ggY-10" value="" style="edgeStyle=orthogonalEdgeStyle;rounded=0;orthogonalLoop=1;jettySize=auto;html=1;entryX=0;entryY=0.5;entryDx=0;entryDy=0;exitX=1;exitY=0;exitDx=0;exitDy=0;" parent="1" source="dD-ff6LDMtreiRbt8ggY-11" target="dD-ff6LDMtreiRbt8ggY-21" edge="1">
          <mxGeometry relative="1" as="geometry">
            <Array as="points">
              <mxPoint x="-100" y="930" />
              <mxPoint x="-100" y="870" />
            </Array>
          </mxGeometry>
        </mxCell>
        <mxCell id="dD-ff6LDMtreiRbt8ggY-120" style="edgeStyle=orthogonalEdgeStyle;rounded=0;orthogonalLoop=1;jettySize=auto;html=1;exitX=1;exitY=1;exitDx=0;exitDy=0;entryX=0;entryY=0.5;entryDx=0;entryDy=0;" parent="1" source="dD-ff6LDMtreiRbt8ggY-11" target="dD-ff6LDMtreiRbt8ggY-119" edge="1">
          <mxGeometry relative="1" as="geometry">
            <Array as="points">
              <mxPoint x="-100" y="990" />
              <mxPoint x="-100" y="1050" />
            </Array>
          </mxGeometry>
        </mxCell>
        <mxCell id="dD-ff6LDMtreiRbt8ggY-11" value="Chef" style="rounded=0;whiteSpace=wrap;html=1;" parent="1" vertex="1">
          <mxGeometry x="-290" y="930" width="120" height="60" as="geometry" />
        </mxCell>
        <mxCell id="dD-ff6LDMtreiRbt8ggY-17" value="Order" style="rounded=0;whiteSpace=wrap;html=1;" parent="1" vertex="1">
          <mxGeometry x="295" y="930" width="120" height="60" as="geometry" />
        </mxCell>
        <mxCell id="dD-ff6LDMtreiRbt8ggY-18" value="" style="edgeStyle=orthogonalEdgeStyle;rounded=0;orthogonalLoop=1;jettySize=auto;html=1;" parent="1" target="dD-ff6LDMtreiRbt8ggY-17" edge="1">
          <mxGeometry relative="1" as="geometry">
            <mxPoint x="355" y="1050" as="sourcePoint" />
          </mxGeometry>
        </mxCell>
        <mxCell id="dD-ff6LDMtreiRbt8ggY-20" value="" style="edgeStyle=orthogonalEdgeStyle;rounded=0;orthogonalLoop=1;jettySize=auto;html=1;entryX=0;entryY=0;entryDx=0;entryDy=0;exitX=1;exitY=0.5;exitDx=0;exitDy=0;" parent="1" source="dD-ff6LDMtreiRbt8ggY-21" target="dD-ff6LDMtreiRbt8ggY-17" edge="1">
          <mxGeometry relative="1" as="geometry">
            <mxPoint x="240" y="960" as="targetPoint" />
            <Array as="points">
              <mxPoint x="120" y="870" />
              <mxPoint x="120" y="930" />
            </Array>
          </mxGeometry>
        </mxCell>
        <mxCell id="dD-ff6LDMtreiRbt8ggY-21" value="reads" style="rhombus;whiteSpace=wrap;html=1;rounded=0;" parent="1" vertex="1">
          <mxGeometry x="-30" y="830" width="80" height="80" as="geometry" />
        </mxCell>
        <mxCell id="dD-ff6LDMtreiRbt8ggY-26" value="1" style="text;html=1;align=center;verticalAlign=middle;resizable=0;points=[];autosize=1;strokeColor=none;fillColor=none;" parent="1" vertex="1">
          <mxGeometry x="720" y="1170" width="20" height="20" as="geometry" />
        </mxCell>
        <mxCell id="dD-ff6LDMtreiRbt8ggY-30" value="0..N" style="text;html=1;align=center;verticalAlign=middle;resizable=0;points=[];autosize=1;strokeColor=none;fillColor=none;" parent="1" vertex="1">
          <mxGeometry x="420" y="940" width="40" height="20" as="geometry" />
        </mxCell>
        <mxCell id="dD-ff6LDMtreiRbt8ggY-31" value="1" style="text;html=1;align=center;verticalAlign=middle;resizable=0;points=[];autosize=1;strokeColor=none;fillColor=none;" parent="1" vertex="1">
          <mxGeometry x="360" y="1170" width="20" height="20" as="geometry" />
        </mxCell>
        <mxCell id="dD-ff6LDMtreiRbt8ggY-39" value="0..N" style="text;html=1;align=center;verticalAlign=middle;resizable=0;points=[];autosize=1;strokeColor=none;fillColor=none;" parent="1" vertex="1">
          <mxGeometry x="250" y="930" width="40" height="20" as="geometry" />
        </mxCell>
        <mxCell id="dD-ff6LDMtreiRbt8ggY-40" value="1" style="text;html=1;align=center;verticalAlign=middle;resizable=0;points=[];autosize=1;strokeColor=none;fillColor=none;" parent="1" vertex="1">
          <mxGeometry x="-170" y="910" width="20" height="20" as="geometry" />
        </mxCell>
        <mxCell id="dD-ff6LDMtreiRbt8ggY-64" style="edgeStyle=orthogonalEdgeStyle;rounded=0;orthogonalLoop=1;jettySize=auto;html=1;entryX=0.5;entryY=0;entryDx=0;entryDy=0;" parent="1" source="dD-ff6LDMtreiRbt8ggY-42" target="dD-ff6LDMtreiRbt8ggY-43" edge="1">
          <mxGeometry relative="1" as="geometry" />
        </mxCell>
        <mxCell id="dD-ff6LDMtreiRbt8ggY-42" value="creates" style="rhombus;whiteSpace=wrap;html=1;rounded=0;" parent="1" vertex="1">
          <mxGeometry x="315" y="1340" width="80" height="80" as="geometry" />
        </mxCell>
        <mxCell id="dD-ff6LDMtreiRbt8ggY-43" value="Reservation" style="whiteSpace=wrap;html=1;rounded=0;" parent="1" vertex="1">
          <mxGeometry x="295" y="1520" width="120" height="60" as="geometry" />
        </mxCell>
        <mxCell id="dD-ff6LDMtreiRbt8ggY-48" value="0..N" style="text;html=1;align=center;verticalAlign=middle;resizable=0;points=[];autosize=1;strokeColor=none;fillColor=none;" parent="1" vertex="1">
          <mxGeometry x="355" y="1500" width="40" height="20" as="geometry" />
        </mxCell>
        <mxCell id="dD-ff6LDMtreiRbt8ggY-49" value="1" style="text;html=1;align=center;verticalAlign=middle;resizable=0;points=[];autosize=1;strokeColor=none;fillColor=none;" parent="1" vertex="1">
          <mxGeometry x="415" y="1250" width="20" height="20" as="geometry" />
        </mxCell>
        <mxCell id="dD-ff6LDMtreiRbt8ggY-110" style="edgeStyle=orthogonalEdgeStyle;rounded=0;orthogonalLoop=1;jettySize=auto;html=1;entryX=1;entryY=0.5;entryDx=0;entryDy=0;" parent="1" source="dD-ff6LDMtreiRbt8ggY-51" target="dD-ff6LDMtreiRbt8ggY-43" edge="1">
          <mxGeometry relative="1" as="geometry">
            <Array as="points">
              <mxPoint x="720" y="1550" />
            </Array>
          </mxGeometry>
        </mxCell>
        <mxCell id="dD-ff6LDMtreiRbt8ggY-51" value="has" style="rhombus;whiteSpace=wrap;html=1;rounded=0;" parent="1" vertex="1">
          <mxGeometry x="680" y="1510" width="80" height="80" as="geometry" />
        </mxCell>
        <mxCell id="dD-ff6LDMtreiRbt8ggY-52" value="1..N" style="text;html=1;align=center;verticalAlign=middle;resizable=0;points=[];autosize=1;strokeColor=none;fillColor=none;" parent="1" vertex="1">
          <mxGeometry x="420" y="1530" width="40" height="20" as="geometry" />
        </mxCell>
        <mxCell id="dD-ff6LDMtreiRbt8ggY-53" value="1" style="text;html=1;align=center;verticalAlign=middle;resizable=0;points=[];autosize=1;strokeColor=none;fillColor=none;" parent="1" vertex="1">
          <mxGeometry x="720" y="1250" width="20" height="20" as="geometry" />
        </mxCell>
        <mxCell id="dD-ff6LDMtreiRbt8ggY-67" style="edgeStyle=orthogonalEdgeStyle;rounded=0;orthogonalLoop=1;jettySize=auto;html=1;entryX=0;entryY=0;entryDx=0;entryDy=0;" parent="1" source="dD-ff6LDMtreiRbt8ggY-55" target="dD-ff6LDMtreiRbt8ggY-43" edge="1">
          <mxGeometry relative="1" as="geometry">
            <mxPoint x="200" y="1480" as="targetPoint" />
            <Array as="points">
              <mxPoint x="200" y="1470" />
              <mxPoint x="295" y="1470" />
            </Array>
          </mxGeometry>
        </mxCell>
        <mxCell id="dD-ff6LDMtreiRbt8ggY-55" value="delete" style="rhombus;whiteSpace=wrap;html=1;rounded=0;" parent="1" vertex="1">
          <mxGeometry x="160" y="1340" width="80" height="80" as="geometry" />
        </mxCell>
        <mxCell id="dD-ff6LDMtreiRbt8ggY-56" value="1" style="text;html=1;align=center;verticalAlign=middle;resizable=0;points=[];autosize=1;strokeColor=none;fillColor=none;" parent="1" vertex="1">
          <mxGeometry x="360" y="1250" width="20" height="20" as="geometry" />
        </mxCell>
        <mxCell id="dD-ff6LDMtreiRbt8ggY-57" value="0..N" style="text;html=1;align=center;verticalAlign=middle;resizable=0;points=[];autosize=1;strokeColor=none;fillColor=none;" parent="1" vertex="1">
          <mxGeometry x="290" y="1500" width="40" height="20" as="geometry" />
        </mxCell>
        <mxCell id="dD-ff6LDMtreiRbt8ggY-61" value="updates" style="rhombus;whiteSpace=wrap;html=1;rounded=0;" parent="1" vertex="1">
          <mxGeometry x="460" y="1340" width="80" height="80" as="geometry" />
        </mxCell>
        <mxCell id="dD-ff6LDMtreiRbt8ggY-65" style="edgeStyle=orthogonalEdgeStyle;rounded=0;orthogonalLoop=1;jettySize=auto;html=1;exitX=0.5;exitY=1;exitDx=0;exitDy=0;entryX=1;entryY=0;entryDx=0;entryDy=0;" parent="1" source="dD-ff6LDMtreiRbt8ggY-61" target="dD-ff6LDMtreiRbt8ggY-43" edge="1">
          <mxGeometry relative="1" as="geometry" />
        </mxCell>
        <mxCell id="dD-ff6LDMtreiRbt8ggY-68" value="1" style="text;html=1;align=center;verticalAlign=middle;resizable=0;points=[];autosize=1;strokeColor=none;fillColor=none;" parent="1" vertex="1">
          <mxGeometry x="295" y="1250" width="20" height="20" as="geometry" />
        </mxCell>
        <mxCell id="dD-ff6LDMtreiRbt8ggY-69" value="0..N" style="text;html=1;align=center;verticalAlign=middle;resizable=0;points=[];autosize=1;strokeColor=none;fillColor=none;" parent="1" vertex="1">
          <mxGeometry x="415" y="1500" width="40" height="20" as="geometry" />
        </mxCell>
        <mxCell id="dD-ff6LDMtreiRbt8ggY-73" style="edgeStyle=orthogonalEdgeStyle;rounded=0;orthogonalLoop=1;jettySize=auto;html=1;entryX=1;entryY=0.5;entryDx=0;entryDy=0;" parent="1" source="dD-ff6LDMtreiRbt8ggY-70" target="dD-ff6LDMtreiRbt8ggY-17" edge="1">
          <mxGeometry relative="1" as="geometry" />
        </mxCell>
        <mxCell id="dD-ff6LDMtreiRbt8ggY-70" value="has" style="rhombus;whiteSpace=wrap;html=1;rounded=0;" parent="1" vertex="1">
          <mxGeometry x="680" y="920" width="80" height="80" as="geometry" />
        </mxCell>
        <mxCell id="dD-ff6LDMtreiRbt8ggY-74" value="creates" style="rhombus;whiteSpace=wrap;html=1;rounded=0;" parent="1" vertex="1">
          <mxGeometry x="315" y="1050" width="80" height="80" as="geometry" />
        </mxCell>
        <mxCell id="dD-ff6LDMtreiRbt8ggY-79" style="edgeStyle=orthogonalEdgeStyle;rounded=0;orthogonalLoop=1;jettySize=auto;html=1;entryX=0;entryY=1;entryDx=0;entryDy=0;exitX=0.5;exitY=0;exitDx=0;exitDy=0;" parent="1" source="dD-ff6LDMtreiRbt8ggY-75" target="dD-ff6LDMtreiRbt8ggY-17" edge="1">
          <mxGeometry relative="1" as="geometry" />
        </mxCell>
        <mxCell id="dD-ff6LDMtreiRbt8ggY-75" value="delete" style="rhombus;whiteSpace=wrap;html=1;rounded=0;" parent="1" vertex="1">
          <mxGeometry x="160" y="1050" width="80" height="80" as="geometry" />
        </mxCell>
        <mxCell id="dD-ff6LDMtreiRbt8ggY-80" style="edgeStyle=orthogonalEdgeStyle;rounded=0;orthogonalLoop=1;jettySize=auto;html=1;entryX=1;entryY=1;entryDx=0;entryDy=0;exitX=0.5;exitY=0;exitDx=0;exitDy=0;" parent="1" source="dD-ff6LDMtreiRbt8ggY-76" target="dD-ff6LDMtreiRbt8ggY-17" edge="1">
          <mxGeometry relative="1" as="geometry" />
        </mxCell>
        <mxCell id="dD-ff6LDMtreiRbt8ggY-76" value="updates" style="rhombus;whiteSpace=wrap;html=1;rounded=0;" parent="1" vertex="1">
          <mxGeometry x="460" y="1050" width="80" height="80" as="geometry" />
        </mxCell>
        <mxCell id="dD-ff6LDMtreiRbt8ggY-81" value="1" style="text;html=1;align=center;verticalAlign=middle;resizable=0;points=[];autosize=1;strokeColor=none;fillColor=none;" parent="1" vertex="1">
          <mxGeometry x="290" y="1170" width="20" height="20" as="geometry" />
        </mxCell>
        <mxCell id="dD-ff6LDMtreiRbt8ggY-82" value="1" style="text;html=1;align=center;verticalAlign=middle;resizable=0;points=[];autosize=1;strokeColor=none;fillColor=none;" parent="1" vertex="1">
          <mxGeometry x="415" y="1170" width="20" height="20" as="geometry" />
        </mxCell>
        <mxCell id="dD-ff6LDMtreiRbt8ggY-83" value="waiter" style="ellipse;whiteSpace=wrap;html=1;rounded=0;" parent="1" vertex="1">
          <mxGeometry x="95" y="760" width="120" height="60" as="geometry" />
        </mxCell>
        <mxCell id="dD-ff6LDMtreiRbt8ggY-86" value="customer" style="ellipse;whiteSpace=wrap;html=1;rounded=0;" parent="1" vertex="1">
          <mxGeometry x="230" y="760" width="120" height="60" as="geometry" />
        </mxCell>
        <mxCell id="dD-ff6LDMtreiRbt8ggY-87" value="ID" style="ellipse;whiteSpace=wrap;html=1;rounded=0;" parent="1" vertex="1">
          <mxGeometry x="-40" y="760" width="120" height="60" as="geometry" />
        </mxCell>
        <mxCell id="dD-ff6LDMtreiRbt8ggY-88" value="timestemp" style="ellipse;whiteSpace=wrap;html=1;rounded=0;" parent="1" vertex="1">
          <mxGeometry x="365" y="760" width="120" height="60" as="geometry" />
        </mxCell>
        <mxCell id="dD-ff6LDMtreiRbt8ggY-89" value="order status" style="ellipse;whiteSpace=wrap;html=1;rounded=0;" parent="1" vertex="1">
          <mxGeometry x="500" y="760" width="120" height="60" as="geometry" />
        </mxCell>
        <mxCell id="dD-ff6LDMtreiRbt8ggY-90" value="" style="endArrow=none;html=1;rounded=0;entryX=0.5;entryY=1;entryDx=0;entryDy=0;" parent="1" target="dD-ff6LDMtreiRbt8ggY-88" edge="1">
          <mxGeometry width="50" height="50" relative="1" as="geometry">
            <mxPoint x="355" y="930" as="sourcePoint" />
            <mxPoint x="405" y="880" as="targetPoint" />
          </mxGeometry>
        </mxCell>
        <mxCell id="dD-ff6LDMtreiRbt8ggY-94" value="" style="endArrow=none;html=1;rounded=0;entryX=0.5;entryY=1;entryDx=0;entryDy=0;" parent="1" edge="1" target="dD-ff6LDMtreiRbt8ggY-83">
          <mxGeometry width="50" height="50" relative="1" as="geometry">
            <mxPoint x="355" y="930" as="sourcePoint" />
            <mxPoint x="240" y="850" as="targetPoint" />
          </mxGeometry>
        </mxCell>
        <mxCell id="dD-ff6LDMtreiRbt8ggY-96" value="" style="endArrow=none;html=1;rounded=0;entryX=0.5;entryY=1;entryDx=0;entryDy=0;" parent="1" target="dD-ff6LDMtreiRbt8ggY-87" edge="1">
          <mxGeometry width="50" height="50" relative="1" as="geometry">
            <mxPoint x="355" y="930" as="sourcePoint" />
            <mxPoint x="405" y="880" as="targetPoint" />
          </mxGeometry>
        </mxCell>
        <mxCell id="dD-ff6LDMtreiRbt8ggY-97" value="" style="endArrow=none;html=1;rounded=0;entryX=0.5;entryY=1;entryDx=0;entryDy=0;" parent="1" target="dD-ff6LDMtreiRbt8ggY-89" edge="1">
          <mxGeometry width="50" height="50" relative="1" as="geometry">
            <mxPoint x="355" y="930" as="sourcePoint" />
            <mxPoint x="405" y="880" as="targetPoint" />
          </mxGeometry>
        </mxCell>
        <mxCell id="dD-ff6LDMtreiRbt8ggY-98" value="" style="endArrow=none;html=1;rounded=0;entryX=0.5;entryY=1;entryDx=0;entryDy=0;" parent="1" target="dD-ff6LDMtreiRbt8ggY-86" edge="1">
          <mxGeometry width="50" height="50" relative="1" as="geometry">
            <mxPoint x="355" y="930" as="sourcePoint" />
            <mxPoint x="405" y="880" as="targetPoint" />
          </mxGeometry>
        </mxCell>
        <mxCell id="dD-ff6LDMtreiRbt8ggY-100" value="waiter" style="ellipse;whiteSpace=wrap;html=1;rounded=0;" parent="1" vertex="1">
          <mxGeometry x="95" y="1660" width="120" height="60" as="geometry" />
        </mxCell>
        <mxCell id="dD-ff6LDMtreiRbt8ggY-101" value="customer" style="ellipse;whiteSpace=wrap;html=1;rounded=0;" parent="1" vertex="1">
          <mxGeometry x="230" y="1660" width="120" height="60" as="geometry" />
        </mxCell>
        <mxCell id="dD-ff6LDMtreiRbt8ggY-102" value="ID" style="ellipse;whiteSpace=wrap;html=1;rounded=0;" parent="1" vertex="1">
          <mxGeometry x="-40" y="1660" width="120" height="60" as="geometry" />
        </mxCell>
        <mxCell id="dD-ff6LDMtreiRbt8ggY-103" value="timestemp" style="ellipse;whiteSpace=wrap;html=1;rounded=0;" parent="1" vertex="1">
          <mxGeometry x="365" y="1660" width="120" height="60" as="geometry" />
        </mxCell>
        <mxCell id="dD-ff6LDMtreiRbt8ggY-104" value="status" style="ellipse;whiteSpace=wrap;html=1;rounded=0;" parent="1" vertex="1">
          <mxGeometry x="500" y="1660" width="120" height="60" as="geometry" />
        </mxCell>
        <mxCell id="dD-ff6LDMtreiRbt8ggY-105" value="" style="endArrow=none;html=1;rounded=0;entryX=0.5;entryY=1;entryDx=0;entryDy=0;exitX=0.5;exitY=0;exitDx=0;exitDy=0;" parent="1" target="dD-ff6LDMtreiRbt8ggY-43" edge="1" source="uC3rIYCLnheefG8fl3z9-102">
          <mxGeometry width="50" height="50" relative="1" as="geometry">
            <mxPoint x="625" y="1660" as="sourcePoint" />
            <mxPoint x="675" y="1610" as="targetPoint" />
          </mxGeometry>
        </mxCell>
        <mxCell id="dD-ff6LDMtreiRbt8ggY-106" value="" style="endArrow=none;html=1;rounded=0;entryX=0.5;entryY=1;entryDx=0;entryDy=0;exitX=0.5;exitY=0;exitDx=0;exitDy=0;" parent="1" target="dD-ff6LDMtreiRbt8ggY-43" edge="1" source="dD-ff6LDMtreiRbt8ggY-104">
          <mxGeometry width="50" height="50" relative="1" as="geometry">
            <mxPoint x="490" y="1660" as="sourcePoint" />
            <mxPoint x="540" y="1610" as="targetPoint" />
          </mxGeometry>
        </mxCell>
        <mxCell id="dD-ff6LDMtreiRbt8ggY-107" value="" style="endArrow=none;html=1;rounded=0;entryX=0.5;entryY=1;entryDx=0;entryDy=0;exitX=0.5;exitY=0;exitDx=0;exitDy=0;" parent="1" target="dD-ff6LDMtreiRbt8ggY-43" edge="1" source="dD-ff6LDMtreiRbt8ggY-102">
          <mxGeometry width="50" height="50" relative="1" as="geometry">
            <mxPoint x="80" y="1660" as="sourcePoint" />
            <mxPoint x="130" y="1610" as="targetPoint" />
          </mxGeometry>
        </mxCell>
        <mxCell id="dD-ff6LDMtreiRbt8ggY-108" value="" style="endArrow=none;html=1;rounded=0;entryX=0.5;entryY=1;entryDx=0;entryDy=0;exitX=0.5;exitY=0;exitDx=0;exitDy=0;" parent="1" target="dD-ff6LDMtreiRbt8ggY-43" edge="1" source="dD-ff6LDMtreiRbt8ggY-100">
          <mxGeometry width="50" height="50" relative="1" as="geometry">
            <mxPoint x="220" y="1660" as="sourcePoint" />
            <mxPoint x="360" y="1580" as="targetPoint" />
          </mxGeometry>
        </mxCell>
        <mxCell id="dD-ff6LDMtreiRbt8ggY-109" value="" style="endArrow=none;html=1;rounded=0;entryX=0.5;entryY=1;entryDx=0;entryDy=0;exitX=0.5;exitY=0;exitDx=0;exitDy=0;" parent="1" target="dD-ff6LDMtreiRbt8ggY-43" edge="1" source="dD-ff6LDMtreiRbt8ggY-103">
          <mxGeometry width="50" height="50" relative="1" as="geometry">
            <mxPoint x="355" y="1660" as="sourcePoint" />
            <mxPoint x="405" y="1610" as="targetPoint" />
          </mxGeometry>
        </mxCell>
        <mxCell id="dD-ff6LDMtreiRbt8ggY-113" value="" style="edgeStyle=orthogonalEdgeStyle;rounded=0;orthogonalLoop=1;jettySize=auto;html=1;entryX=1;entryY=0.5;entryDx=0;entryDy=0;" parent="1" source="dD-ff6LDMtreiRbt8ggY-111" target="dD-ff6LDMtreiRbt8ggY-9" edge="1">
          <mxGeometry relative="1" as="geometry" />
        </mxCell>
        <mxCell id="dD-ff6LDMtreiRbt8ggY-111" value="has" style="rhombus;whiteSpace=wrap;html=1;rounded=0;" parent="1" vertex="1">
          <mxGeometry x="510" y="1180" width="80" height="80" as="geometry" />
        </mxCell>
        <mxCell id="dD-ff6LDMtreiRbt8ggY-114" value="1" style="text;html=1;align=center;verticalAlign=middle;resizable=0;points=[];autosize=1;strokeColor=none;fillColor=none;" parent="1" vertex="1">
          <mxGeometry x="425" y="1200" width="20" height="20" as="geometry" />
        </mxCell>
        <mxCell id="dD-ff6LDMtreiRbt8ggY-115" value="0..N" style="text;html=1;align=center;verticalAlign=middle;resizable=0;points=[];autosize=1;strokeColor=none;fillColor=none;" parent="1" vertex="1">
          <mxGeometry x="620" y="1200" width="40" height="20" as="geometry" />
        </mxCell>
        <mxCell id="dD-ff6LDMtreiRbt8ggY-116" value="ID" style="ellipse;whiteSpace=wrap;html=1;rounded=0;" parent="1" vertex="1">
          <mxGeometry x="880" y="950" width="120" height="60" as="geometry" />
        </mxCell>
        <mxCell id="dD-ff6LDMtreiRbt8ggY-117" value="waiter" style="ellipse;whiteSpace=wrap;html=1;rounded=0;" parent="1" vertex="1">
          <mxGeometry x="880" y="1030" width="120" height="60" as="geometry" />
        </mxCell>
        <mxCell id="dD-ff6LDMtreiRbt8ggY-122" style="edgeStyle=orthogonalEdgeStyle;rounded=0;orthogonalLoop=1;jettySize=auto;html=1;entryX=0;entryY=1;entryDx=0;entryDy=0;exitX=1;exitY=0.5;exitDx=0;exitDy=0;" parent="1" source="dD-ff6LDMtreiRbt8ggY-119" target="dD-ff6LDMtreiRbt8ggY-17" edge="1">
          <mxGeometry relative="1" as="geometry">
            <mxPoint x="150" y="975" as="targetPoint" />
            <Array as="points">
              <mxPoint x="120" y="1050" />
              <mxPoint x="120" y="990" />
            </Array>
          </mxGeometry>
        </mxCell>
        <mxCell id="dD-ff6LDMtreiRbt8ggY-119" value="updates" style="rhombus;whiteSpace=wrap;html=1;rounded=0;" parent="1" vertex="1">
          <mxGeometry x="-30" y="1010" width="80" height="80" as="geometry" />
        </mxCell>
        <mxCell id="dD-ff6LDMtreiRbt8ggY-121" value="1" style="text;html=1;align=center;verticalAlign=middle;resizable=0;points=[];autosize=1;strokeColor=none;fillColor=none;" parent="1" vertex="1">
          <mxGeometry x="-170" y="970" width="20" height="20" as="geometry" />
        </mxCell>
        <mxCell id="dD-ff6LDMtreiRbt8ggY-123" value="0..N/&lt;br&gt;1" style="text;html=1;align=center;verticalAlign=middle;resizable=0;points=[];autosize=1;strokeColor=none;fillColor=none;" parent="1" vertex="1">
          <mxGeometry x="250" y="960" width="40" height="30" as="geometry" />
        </mxCell>
        <mxCell id="dD-ff6LDMtreiRbt8ggY-124" value="updates status" style="text;html=1;align=center;verticalAlign=middle;resizable=0;points=[];autosize=1;strokeColor=none;fillColor=none;" parent="1" vertex="1">
          <mxGeometry x="-40" y="1090" width="90" height="20" as="geometry" />
        </mxCell>
        <mxCell id="dD-ff6LDMtreiRbt8ggY-125" value="timestemp" style="ellipse;whiteSpace=wrap;html=1;rounded=0;" parent="1" vertex="1">
          <mxGeometry x="880" y="1110" width="120" height="60" as="geometry" />
        </mxCell>
        <mxCell id="dD-ff6LDMtreiRbt8ggY-126" value="billed" style="ellipse;whiteSpace=wrap;html=1;rounded=0;" parent="1" vertex="1">
          <mxGeometry x="880" y="1350" width="120" height="60" as="geometry" />
        </mxCell>
        <mxCell id="dD-ff6LDMtreiRbt8ggY-127" value="order" style="ellipse;whiteSpace=wrap;html=1;rounded=0;" parent="1" vertex="1">
          <mxGeometry x="880" y="1190" width="120" height="60" as="geometry" />
        </mxCell>
        <mxCell id="dD-ff6LDMtreiRbt8ggY-128" value="order status" style="ellipse;whiteSpace=wrap;html=1;rounded=0;" parent="1" vertex="1">
          <mxGeometry x="880" y="1270" width="120" height="60" as="geometry" />
        </mxCell>
        <mxCell id="dD-ff6LDMtreiRbt8ggY-129" value="" style="endArrow=none;html=1;rounded=0;entryX=0;entryY=0.5;entryDx=0;entryDy=0;" parent="1" target="dD-ff6LDMtreiRbt8ggY-128" edge="1">
          <mxGeometry width="50" height="50" relative="1" as="geometry">
            <mxPoint x="780" y="1220" as="sourcePoint" />
            <mxPoint x="830" y="1170" as="targetPoint" />
          </mxGeometry>
        </mxCell>
        <mxCell id="dD-ff6LDMtreiRbt8ggY-130" value="" style="endArrow=none;html=1;rounded=0;entryX=0;entryY=0.5;entryDx=0;entryDy=0;" parent="1" target="dD-ff6LDMtreiRbt8ggY-116" edge="1">
          <mxGeometry width="50" height="50" relative="1" as="geometry">
            <mxPoint x="780" y="1220" as="sourcePoint" />
            <mxPoint x="830" y="1170" as="targetPoint" />
          </mxGeometry>
        </mxCell>
        <mxCell id="dD-ff6LDMtreiRbt8ggY-131" value="" style="endArrow=none;html=1;rounded=0;entryX=0;entryY=0.5;entryDx=0;entryDy=0;" parent="1" target="dD-ff6LDMtreiRbt8ggY-117" edge="1">
          <mxGeometry width="50" height="50" relative="1" as="geometry">
            <mxPoint x="780" y="1220" as="sourcePoint" />
            <mxPoint x="830" y="1170" as="targetPoint" />
          </mxGeometry>
        </mxCell>
        <mxCell id="dD-ff6LDMtreiRbt8ggY-132" value="" style="endArrow=none;html=1;rounded=0;entryX=0;entryY=0.5;entryDx=0;entryDy=0;" parent="1" target="dD-ff6LDMtreiRbt8ggY-125" edge="1">
          <mxGeometry width="50" height="50" relative="1" as="geometry">
            <mxPoint x="780" y="1220" as="sourcePoint" />
            <mxPoint x="830" y="1170" as="targetPoint" />
          </mxGeometry>
        </mxCell>
        <mxCell id="dD-ff6LDMtreiRbt8ggY-133" value="" style="endArrow=none;html=1;rounded=0;entryX=0;entryY=0.5;entryDx=0;entryDy=0;" parent="1" target="dD-ff6LDMtreiRbt8ggY-127" edge="1">
          <mxGeometry width="50" height="50" relative="1" as="geometry">
            <mxPoint x="780" y="1220" as="sourcePoint" />
            <mxPoint x="830" y="1170" as="targetPoint" />
          </mxGeometry>
        </mxCell>
        <mxCell id="dD-ff6LDMtreiRbt8ggY-134" value="" style="endArrow=none;html=1;rounded=0;entryX=0;entryY=0.5;entryDx=0;entryDy=0;" parent="1" target="dD-ff6LDMtreiRbt8ggY-126" edge="1">
          <mxGeometry width="50" height="50" relative="1" as="geometry">
            <mxPoint x="780" y="1220" as="sourcePoint" />
            <mxPoint x="830" y="1170" as="targetPoint" />
          </mxGeometry>
        </mxCell>
        <mxCell id="dD-ff6LDMtreiRbt8ggY-135" value="ID" style="ellipse;whiteSpace=wrap;html=1;rounded=0;" parent="1" vertex="1">
          <mxGeometry x="-470" y="890" width="120" height="60" as="geometry" />
        </mxCell>
        <mxCell id="dD-ff6LDMtreiRbt8ggY-138" value="" style="endArrow=none;html=1;rounded=0;entryX=1;entryY=0.5;entryDx=0;entryDy=0;" parent="1" target="dD-ff6LDMtreiRbt8ggY-135" edge="1">
          <mxGeometry width="50" height="50" relative="1" as="geometry">
            <mxPoint x="-290" y="960" as="sourcePoint" />
            <mxPoint x="-240" y="910" as="targetPoint" />
          </mxGeometry>
        </mxCell>
        <mxCell id="dD-ff6LDMtreiRbt8ggY-139" value="" style="endArrow=none;html=1;rounded=0;exitX=1;exitY=0.5;exitDx=0;exitDy=0;" parent="1" source="dD-ff6LDMtreiRbt8ggY-141" edge="1">
          <mxGeometry width="50" height="50" relative="1" as="geometry">
            <mxPoint x="-350" y="990" as="sourcePoint" />
            <mxPoint x="-290" y="960" as="targetPoint" />
          </mxGeometry>
        </mxCell>
        <mxCell id="dD-ff6LDMtreiRbt8ggY-141" value="orders" style="ellipse;whiteSpace=wrap;html=1;rounded=0;" parent="1" vertex="1">
          <mxGeometry x="-470" y="970" width="120" height="60" as="geometry" />
        </mxCell>
        <mxCell id="dD-ff6LDMtreiRbt8ggY-142" value="ID" style="ellipse;whiteSpace=wrap;html=1;rounded=0;" parent="1" vertex="1">
          <mxGeometry x="25" y="1110" width="120" height="60" as="geometry" />
        </mxCell>
        <mxCell id="dD-ff6LDMtreiRbt8ggY-143" value="" style="endArrow=none;html=1;rounded=0;entryX=1;entryY=0.5;entryDx=0;entryDy=0;exitX=0;exitY=0.5;exitDx=0;exitDy=0;" parent="1" source="dD-ff6LDMtreiRbt8ggY-9" target="dD-ff6LDMtreiRbt8ggY-142" edge="1">
          <mxGeometry width="50" height="50" relative="1" as="geometry">
            <mxPoint x="290" y="1220" as="sourcePoint" />
            <mxPoint x="240" y="1180" as="targetPoint" />
          </mxGeometry>
        </mxCell>
        <mxCell id="dD-ff6LDMtreiRbt8ggY-144" value="" style="endArrow=none;html=1;rounded=0;exitX=1;exitY=0.5;exitDx=0;exitDy=0;entryX=0;entryY=0.5;entryDx=0;entryDy=0;" parent="1" source="dD-ff6LDMtreiRbt8ggY-145" target="dD-ff6LDMtreiRbt8ggY-9" edge="1">
          <mxGeometry width="50" height="50" relative="1" as="geometry">
            <mxPoint x="130" y="1260" as="sourcePoint" />
            <mxPoint x="190" y="1230" as="targetPoint" />
          </mxGeometry>
        </mxCell>
        <mxCell id="dD-ff6LDMtreiRbt8ggY-145" value="orders" style="ellipse;whiteSpace=wrap;html=1;rounded=0;" parent="1" vertex="1">
          <mxGeometry x="25" y="1190" width="120" height="60" as="geometry" />
        </mxCell>
        <mxCell id="dD-ff6LDMtreiRbt8ggY-146" value="customer" style="ellipse;whiteSpace=wrap;html=1;rounded=0;" parent="1" vertex="1">
          <mxGeometry x="25" y="1270" width="120" height="60" as="geometry" />
        </mxCell>
        <mxCell id="dD-ff6LDMtreiRbt8ggY-148" value="" style="endArrow=none;html=1;rounded=0;entryX=0;entryY=0.5;entryDx=0;entryDy=0;exitX=1;exitY=0.5;exitDx=0;exitDy=0;" parent="1" source="dD-ff6LDMtreiRbt8ggY-146" target="dD-ff6LDMtreiRbt8ggY-9" edge="1">
          <mxGeometry width="50" height="50" relative="1" as="geometry">
            <mxPoint x="130" y="1350" as="sourcePoint" />
            <mxPoint x="180" y="1300" as="targetPoint" />
          </mxGeometry>
        </mxCell>
        <mxCell id="uC3rIYCLnheefG8fl3z9-102" value="table" style="ellipse;whiteSpace=wrap;html=1;rounded=0;" vertex="1" parent="1">
          <mxGeometry x="637.5" y="1660" width="120" height="60" as="geometry" />
        </mxCell>
        <mxCell id="uC3rIYCLnheefG8fl3z9-103" value="" style="endArrow=none;html=1;rounded=0;entryX=0.5;entryY=0;entryDx=0;entryDy=0;" edge="1" parent="1" target="dD-ff6LDMtreiRbt8ggY-101">
          <mxGeometry width="50" height="50" relative="1" as="geometry">
            <mxPoint x="355" y="1580" as="sourcePoint" />
            <mxPoint x="325" y="1750" as="targetPoint" />
          </mxGeometry>
        </mxCell>
        <mxCell id="uC3rIYCLnheefG8fl3z9-104" value="table" style="ellipse;whiteSpace=wrap;html=1;rounded=0;" vertex="1" parent="1">
          <mxGeometry x="880" y="1430" width="120" height="60" as="geometry" />
        </mxCell>
        <mxCell id="uC3rIYCLnheefG8fl3z9-106" value="" style="endArrow=none;html=1;rounded=0;exitX=0;exitY=0.5;exitDx=0;exitDy=0;entryX=1;entryY=0.5;entryDx=0;entryDy=0;" edge="1" parent="1" source="uC3rIYCLnheefG8fl3z9-104" target="dD-ff6LDMtreiRbt8ggY-5">
          <mxGeometry width="50" height="50" relative="1" as="geometry">
            <mxPoint x="800" y="1470" as="sourcePoint" />
            <mxPoint x="850" y="1420" as="targetPoint" />
          </mxGeometry>
        </mxCell>
        <mxCell id="uC3rIYCLnheefG8fl3z9-107" value="table" style="ellipse;whiteSpace=wrap;html=1;rounded=0;" vertex="1" parent="1">
          <mxGeometry x="637.5" y="760" width="120" height="60" as="geometry" />
        </mxCell>
        <mxCell id="uC3rIYCLnheefG8fl3z9-108" value="" style="endArrow=none;html=1;rounded=0;entryX=0.5;entryY=1;entryDx=0;entryDy=0;exitX=0.5;exitY=0;exitDx=0;exitDy=0;" edge="1" parent="1" source="dD-ff6LDMtreiRbt8ggY-17" target="uC3rIYCLnheefG8fl3z9-107">
          <mxGeometry width="50" height="50" relative="1" as="geometry">
            <mxPoint x="575" y="910" as="sourcePoint" />
            <mxPoint x="625" y="860" as="targetPoint" />
          </mxGeometry>
        </mxCell>
      </root>
    </mxGraphModel>
  </diagram>
</mxfile>
